<?xml version="1.0" encoding="UTF-8" standalone="no"?><!DOCTYPE svg PUBLIC "-//W3C//DTD SVG 1.1//EN" "http://www.w3.org/Graphics/SVG/1.1/DTD/svg11.dtd"><svg width="100%" height="100%" viewBox="0 0 19 62" version="1.1" xmlns="http://www.w3.org/2000/svg" xmlns:xlink="http://www.w3.org/1999/xlink" xml:space="preserve" xmlns:serif="http://www.serif.com/" style="fill-rule:evenodd;clip-rule:evenodd;stroke-linejoin:round;stroke-miterlimit:2;"><rect id="Artboard12" x="0" y="0" width="18.24" height="61.24" style="fill:none;"/><clipPath id="_clip1"><rect x="0" y="0" width="18.24" height="61.24"/></clipPath><g clip-path="url(#_clip1)"><path d="M0.32,52.6c-0,-2.72 0.83,-4.933 2.48,-6.64c1.71,-1.707 3.92,-2.56 6.64,-2.56c2.72,0 4.91,0.853 6.56,2.56c1.71,1.707 2.56,3.92 2.56,6.64c-0,2.72 -0.85,4.907 -2.56,6.56c-1.65,1.653 -3.84,2.48 -6.56,2.48c-2.72,0 -4.93,-0.827 -6.64,-2.48c-1.65,-1.653 -2.48,-3.84 -2.48,-6.56Z" style="fill:#f8f9fa;fill-rule:nonzero;"/></g></svg>