<svg width="52" height="73" viewBox="0 0 52 73" fill="none" xmlns="http://www.w3.org/2000/svg">
<path d="M0 14.24H17.12L34.48 41.52V14.24H51.12V72.64H35.28L16.64 43.28V72.64H0V14.24ZM12.48 12.8C12.48 8.21333 13.2 4.93333 14.64 2.96C16.08 0.986667 18.32 0 21.36 0C22.64 0 23.7333 0.16 24.64 0.479999C25.6 0.800001 26.4533 1.14667 27.2 1.52C27.84 1.84 28.4533 2.13334 29.04 2.4C29.6267 2.66667 30.16 2.8 30.64 2.8C31.0667 2.8 31.3867 2.61333 31.6 2.24C31.8133 1.86667 31.92 1.22667 31.92 0.320001H40.96C40.96 4.16 40.32 7.25333 39.04 9.6C37.76 11.9467 35.44 13.12 32.08 13.12C30.5867 13.12 29.3867 12.9867 28.48 12.72C27.6267 12.4533 26.9067 12.16 26.32 11.84C25.68 11.52 25.0667 11.2 24.48 10.88C23.9467 10.56 23.36 10.4 22.72 10.4C22.1333 10.4 21.7067 10.5867 21.44 10.96C21.1733 11.28 21.04 11.8933 21.04 12.8H12.48Z" fill="#F8F9FA"/>
</svg>
