<?xml version="1.0" encoding="UTF-8" standalone="no"?><!DOCTYPE svg PUBLIC "-//W3C//DTD SVG 1.1//EN" "http://www.w3.org/Graphics/SVG/1.1/DTD/svg11.dtd"><svg width="100%" height="100%" viewBox="0 0 46 60" version="1.1" xmlns="http://www.w3.org/2000/svg" xmlns:xlink="http://www.w3.org/1999/xlink" xml:space="preserve" xmlns:serif="http://www.serif.com/" style="fill-rule:evenodd;clip-rule:evenodd;stroke-linejoin:round;stroke-miterlimit:2;"><rect id="Artboard10" x="0" y="0" width="45.36" height="59.2" style="fill:none;"/><clipPath id="_clip1"><rect x="0" y="0" width="45.36" height="59.2"/></clipPath><g clip-path="url(#_clip1)"><path d="M9.36,60l10.24,-17.2c-2.67,-0.16 -5.15,-0.747 -7.44,-1.76c-2.24,-1.013 -4.21,-2.4 -5.92,-4.16c-1.65,-1.76 -2.96,-3.867 -3.92,-6.32c-0.96,-2.507 -1.44,-5.307 -1.44,-8.4c0,-3.093 0.53,-5.947 1.6,-8.56c1.12,-2.613 2.67,-4.853 4.64,-6.72c2.03,-1.92 4.43,-3.413 7.2,-4.48c2.77,-1.067 5.87,-1.6 9.28,-1.6c3.36,0 6.43,0.533 9.2,1.6c2.77,1.067 5.15,2.56 7.12,4.48c2.03,1.92 3.57,4.187 4.64,6.8c1.12,2.613 1.68,5.44 1.68,8.48c0,1.44 -0.19,2.907 -0.56,4.4c-0.37,1.44 -0.88,2.907 -1.52,4.4c-0.59,1.44 -1.25,2.853 -2,4.24c-0.69,1.387 -1.39,2.693 -2.08,3.92l-12.24,20.88l-18.48,0Zm14.24,-31.52c1.76,-0 3.23,-0.587 4.4,-1.76c1.17,-1.227 1.76,-2.72 1.76,-4.48c-0,-1.813 -0.59,-3.28 -1.76,-4.4c-1.17,-1.173 -2.64,-1.76 -4.4,-1.76c-1.81,0 -3.33,0.587 -4.56,1.76c-1.23,1.12 -1.84,2.587 -1.84,4.4c0,1.76 0.61,3.253 1.84,4.48c1.23,1.173 2.75,1.76 4.56,1.76Z" style="fill:#f8f9fa;fill-rule:nonzero;"/></g></svg>