<?xml version="1.0" encoding="UTF-8" standalone="no"?><!DOCTYPE svg PUBLIC "-//W3C//DTD SVG 1.1//EN" "http://www.w3.org/Graphics/SVG/1.1/DTD/svg11.dtd"><svg width="100%" height="100%" viewBox="0 0 46 60" version="1.1" xmlns="http://www.w3.org/2000/svg" xmlns:xlink="http://www.w3.org/1999/xlink" xml:space="preserve" xmlns:serif="http://www.serif.com/" style="fill-rule:evenodd;clip-rule:evenodd;stroke-linejoin:round;stroke-miterlimit:2;"><rect id="Artboard7" x="0" y="0" width="45.6" height="59.2" style="fill:none;"/><clipPath id="_clip1"><rect x="0" y="0" width="45.6" height="59.2"/></clipPath><g clip-path="url(#_clip1)"><path d="M23.6,59.8c-3.36,-0 -6.453,-0.533 -9.28,-1.6c-2.773,-1.12 -5.173,-2.64 -7.2,-4.56c-1.973,-1.92 -3.52,-4.187 -4.64,-6.8c-1.067,-2.667 -1.6,-5.547 -1.6,-8.64c-0,-1.387 0.187,-2.8 0.56,-4.24c0.373,-1.493 0.853,-2.96 1.44,-4.4c0.587,-1.493 1.227,-2.933 1.92,-4.32c0.747,-1.387 1.467,-2.72 2.16,-4l12.48,-20.64l18.48,0l-10.48,17.12c2.667,0.16 5.147,0.72 7.44,1.68c2.347,0.96 4.373,2.32 6.08,4.08c1.707,1.76 3.04,3.893 4,6.4c1.013,2.453 1.52,5.227 1.52,8.32c0,3.147 -0.56,6.053 -1.68,8.72c-1.067,2.613 -2.613,4.88 -4.64,6.8c-1.973,1.92 -4.373,3.413 -7.2,4.48c-2.827,1.067 -5.947,1.6 -9.36,1.6Zm0,-15.28c1.867,-0 3.44,-0.587 4.72,-1.76c1.28,-1.227 1.92,-2.773 1.92,-4.64c0,-1.867 -0.64,-3.387 -1.92,-4.56c-1.28,-1.173 -2.853,-1.76 -4.72,-1.76c-1.813,-0 -3.333,0.587 -4.56,1.76c-1.173,1.173 -1.76,2.693 -1.76,4.56c-0,1.867 0.587,3.413 1.76,4.64c1.227,1.173 2.747,1.76 4.56,1.76Z" style="fill:#f8f9fa;fill-rule:nonzero;"/></g></svg>