<svg width="61" height="79" viewBox="0 0 61 79" fill="none" xmlns="http://www.w3.org/2000/svg">
<path d="M30.3555 18C13.4555 18 0.355469 31.5 0.355469 48.1C0.355469 64.8 13.4555 78.2 30.3555 78.2C47.3555 78.2 60.4553 64.8 60.4553 48.1C60.4553 31.5 47.0555 18 30.3555 18ZM30.3555 61.8C22.4555 61.8 17.4553 55.6 17.4553 48.2C17.4553 40.8 22.6555 34.6 30.3555 34.6C38.0555 34.6 43.2554 40.8 43.2554 48.2C43.2554 55.6 38.2555 61.8 30.3555 61.8Z" fill="#76FA95"/>
<path d="M47 0H31.2524L23 14H34.8864L47 0Z" fill="#76FA95"/>
</svg>
