<svg width="60" height="76" viewBox="0 0 60 76" fill="none" xmlns="http://www.w3.org/2000/svg">
<path d="M32.08 0H48.72L35.92 14.8H23.36L32.08 0ZM29.84 75.92C25.6267 75.92 21.7067 75.1467 18.08 73.6C14.4533 72 11.28 69.8667 8.56 67.2C5.89333 64.48 3.78667 61.3067 2.24 57.68C0.746667 54 0 50.08 0 45.92C0 41.76 0.746667 37.8667 2.24 34.24C3.78667 30.6133 5.89333 27.44 8.56 24.72C11.28 22 14.4533 19.8667 18.08 18.32C21.7067 16.72 25.6267 15.92 29.84 15.92C34 15.92 37.8933 16.72 41.52 18.32C45.1467 19.8667 48.32 22 51.04 24.72C53.76 27.44 55.8933 30.6133 57.44 34.24C58.9867 37.8667 59.76 41.76 59.76 45.92C59.76 50.08 58.9867 54 57.44 57.68C55.8933 61.3067 53.7867 64.48 51.12 67.2C48.4533 69.8667 45.28 72 41.6 73.6C37.9733 75.1467 34.0533 75.92 29.84 75.92ZM29.84 59.44C31.8133 59.44 33.5733 59.0933 35.12 58.4C36.72 57.6533 38.08 56.6667 39.2 55.44C40.32 54.2133 41.1733 52.8 41.76 51.2C42.4 49.5467 42.72 47.7867 42.72 45.92C42.72 44.1067 42.4 42.3733 41.76 40.72C41.12 39.0667 40.24 37.6267 39.12 36.4C38 35.1733 36.64 34.2133 35.04 33.52C33.4933 32.7733 31.76 32.4 29.84 32.4C27.92 32.4 26.16 32.7733 24.56 33.52C23.0133 34.2133 21.68 35.1733 20.56 36.4C19.44 37.6267 18.56 39.0667 17.92 40.72C17.3333 42.3733 17.04 44.1067 17.04 45.92C17.04 47.7867 17.3333 49.5467 17.92 51.2C18.5067 52.8 19.36 54.2133 20.48 55.44C21.6 56.6667 22.9333 57.6533 24.48 58.4C26.08 59.0933 27.8667 59.44 29.84 59.44Z" fill="#F8F9FA"/>
</svg>
