<svg width="42" height="61" viewBox="0 0 42 61" fill="none" xmlns="http://www.w3.org/2000/svg">
<path d="M13.84 41.12C13.84 38.1333 14.1067 35.6533 14.64 33.68C15.2267 31.7067 15.9467 30.08 16.8 28.8C17.6533 27.4667 18.56 26.4 19.52 25.6C20.48 24.8 21.3867 24.08 22.24 23.44C23.0933 22.7467 23.7867 22.08 24.32 21.44C24.9067 20.7467 25.2 19.8667 25.2 18.8C25.2 17.6267 24.8 16.6667 24 15.92C23.2533 15.1733 22.1867 14.8 20.8 14.8C19.1467 14.8 17.8933 15.3067 17.04 16.32C16.24 17.28 15.84 18.6667 15.84 20.48V21.2H0.64C0.64 18.16 1.09333 15.4133 2 12.96C2.96 10.4533 4.29333 8.29333 6 6.48C7.76 4.66667 9.89333 3.28 12.4 2.32C14.96 1.30667 17.84 0.799999 21.04 0.799999C24.4533 0.799999 27.4133 1.28 29.92 2.24C32.48 3.14666 34.5867 4.4 36.24 6C37.9467 7.6 39.2 9.49333 40 11.68C40.8533 13.8133 41.28 16.1067 41.28 18.56C41.28 21.12 40.9067 23.2267 40.16 24.88C39.4667 26.5333 38.5867 27.92 37.52 29.04C36.4533 30.16 35.28 31.12 34 31.92C32.7733 32.72 31.6267 33.52 30.56 34.32C29.4933 35.12 28.5867 36.0533 27.84 37.12C27.1467 38.1333 26.8 39.4667 26.8 41.12V41.36H13.84V41.12ZM11.04 51.6C11.04 48.88 11.8667 46.6667 13.52 44.96C15.2267 43.2533 17.44 42.4 20.16 42.4C22.88 42.4 25.0667 43.2533 26.72 44.96C28.4267 46.6667 29.28 48.88 29.28 51.6C29.28 54.32 28.4267 56.5067 26.72 58.16C25.0667 59.8133 22.88 60.64 20.16 60.64C17.44 60.64 15.2267 59.8133 13.52 58.16C11.8667 56.5067 11.04 54.32 11.04 51.6Z" fill="#F8F9FA"/>
</svg>
