<?xml version="1.0" encoding="UTF-8" standalone="no"?><!DOCTYPE svg PUBLIC "-//W3C//DTD SVG 1.1//EN" "http://www.w3.org/Graphics/SVG/1.1/DTD/svg11.dtd"><svg width="100%" height="100%" viewBox="0 0 46 60" version="1.1" xmlns="http://www.w3.org/2000/svg" xmlns:xlink="http://www.w3.org/1999/xlink" xml:space="preserve" xmlns:serif="http://www.serif.com/" style="fill-rule:evenodd;clip-rule:evenodd;stroke-linejoin:round;stroke-miterlimit:2;"><rect id="Artboard9" x="0" y="0" width="45.6" height="60" style="fill:none;"/><clipPath id="_clip1"><rect x="0" y="0" width="45.6" height="60"/></clipPath><g clip-path="url(#_clip1)"><path d="M23.84,60.8c-3.57,-0 -6.8,-0.427 -9.68,-1.28c-2.83,-0.853 -5.25,-2.107 -7.28,-3.76c-1.97,-1.653 -3.49,-3.68 -4.56,-6.08c-1.07,-2.453 -1.6,-5.227 -1.6,-8.32c0,-2.453 0.51,-4.773 1.52,-6.96c1.07,-2.187 2.53,-4.133 4.4,-5.84c-1.17,-1.387 -2.11,-2.907 -2.8,-4.56c-0.69,-1.653 -1.04,-3.44 -1.04,-5.36c-0,-2.88 0.53,-5.413 1.6,-7.6c1.12,-2.24 2.64,-4.107 4.56,-5.6c1.92,-1.547 4.16,-2.693 6.72,-3.44c2.56,-0.8 5.28,-1.2 8.16,-1.2c2.88,-0 5.55,0.4 8,1.2c2.51,0.747 4.69,1.893 6.56,3.44c1.87,1.493 3.33,3.36 4.4,5.6c1.07,2.187 1.6,4.72 1.6,7.6c0,3.733 -1.12,7.04 -3.36,9.92c1.65,1.653 2.93,3.547 3.84,5.68c0.96,2.133 1.44,4.48 1.44,7.04c-0,3.093 -0.53,5.867 -1.6,8.32c-1.01,2.4 -2.51,4.427 -4.48,6.08c-1.97,1.653 -4.35,2.933 -7.12,3.84c-2.77,0.853 -5.87,1.28 -9.28,1.28Zm-0,-14.16c2.24,-0 3.97,-0.48 5.2,-1.44c1.23,-0.96 1.84,-2.293 1.84,-4c0,-1.707 -0.61,-3.04 -1.84,-4c-1.23,-0.96 -2.96,-1.44 -5.2,-1.44c-2.24,-0 -4,0.48 -5.28,1.44c-1.23,0.96 -1.84,2.293 -1.84,4c0,1.707 0.61,3.04 1.84,4c1.28,0.96 3.04,1.44 5.28,1.44Zm-0,-23.28c1.81,-0 3.28,-0.373 4.4,-1.12c1.17,-0.747 1.76,-1.893 1.76,-3.44c0,-1.547 -0.59,-2.693 -1.76,-3.44c-1.12,-0.747 -2.59,-1.12 -4.4,-1.12c-1.81,-0 -3.31,0.373 -4.48,1.12c-1.17,0.747 -1.76,1.893 -1.76,3.44c-0,1.547 0.59,2.693 1.76,3.44c1.17,0.747 2.67,1.12 4.48,1.12Z" style="fill:#f8f9fa;fill-rule:nonzero;"/></g></svg>