<?xml version="1.0" encoding="UTF-8" standalone="no"?><!DOCTYPE svg PUBLIC "-//W3C//DTD SVG 1.1//EN" "http://www.w3.org/Graphics/SVG/1.1/DTD/svg11.dtd"><svg width="100%" height="100%" viewBox="0 0 50 50" version="1.1" xmlns="http://www.w3.org/2000/svg" xmlns:xlink="http://www.w3.org/1999/xlink" xml:space="preserve" xmlns:serif="http://www.serif.com/" style="fill-rule:evenodd;clip-rule:evenodd;stroke-linejoin:round;stroke-miterlimit:2;"><path d="M34.131,12.5l-18.262,0c-1.861,0 -3.369,1.508 -3.369,3.369l0,18.262c0,1.861 1.508,3.369 3.369,3.369l9.007,-0l0.015,-8.934l-2.321,0c-0.301,0 -0.546,-0.244 -0.547,-0.545l-0.012,-2.88c-0.001,-0.303 0.245,-0.55 0.548,-0.55l2.317,0l-0,-2.782c-0,-3.229 1.972,-4.987 4.852,-4.987l2.364,-0c0.303,-0 0.548,0.245 0.548,0.547l-0,2.428c-0,0.303 -0.245,0.548 -0.547,0.548l-1.451,0.001c-1.567,-0 -1.87,0.744 -1.87,1.837l-0,2.408l3.442,0c0.328,0 0.583,0.287 0.544,0.612l-0.341,2.88c-0.033,0.276 -0.267,0.483 -0.544,0.483l-3.086,0l-0.015,8.934l5.359,0c1.861,0 3.369,-1.508 3.369,-3.369l0,-18.262c-0,-1.861 -1.508,-3.369 -3.369,-3.369Z" style="fill:#f8f9fa;fill-rule:nonzero;"/></svg>