<?xml version="1.0" encoding="UTF-8" standalone="no"?>
<!DOCTYPE svg PUBLIC "-//W3C//DTD SVG 1.1//EN" "http://www.w3.org/Graphics/SVG/1.1/DTD/svg11.dtd">
<svg width="100%" height="100%" viewBox="0 0 24 24" version="1.1" xmlns="http://www.w3.org/2000/svg" xmlns:xlink="http://www.w3.org/1999/xlink" xml:space="preserve" xmlns:serif="http://www.serif.com/" style="fill-rule:evenodd;clip-rule:evenodd;stroke-linejoin:round;stroke-miterlimit:2;">
    <path d="M12,4.5c-4.139,0 -7.5,3.361 -7.5,7.5c0,4.139 3.361,7.5 7.5,7.5c4.139,0 7.5,-3.361 7.5,-7.5c0,-4.139 -3.361,-7.5 -7.5,-7.5Zm0,1c3.587,0 6.5,2.913 6.5,6.5c0,3.587 -2.913,6.5 -6.5,6.5c-3.587,0 -6.5,-2.913 -6.5,-6.5c0,-3.587 2.913,-6.5 6.5,-6.5Z" style="fill:#1b1c1e;"/>
    <path d="M11.5,7.5l0,5.5l3.5,0c0.276,0 0.5,-0.224 0.5,-0.5c0,-0.276 -0.224,-0.5 -0.5,-0.5l-2.5,0c0,-0 0,-4.5 0,-4.5c-0,-0.276 -0.224,-0.5 -0.5,-0.5c-0.276,0 -0.5,0.224 -0.5,0.5Z" style="fill:#1b1c1e;"/>
</svg>
