<?xml version="1.0" encoding="UTF-8" standalone="no"?><!DOCTYPE svg PUBLIC "-//W3C//DTD SVG 1.1//EN" "http://www.w3.org/Graphics/SVG/1.1/DTD/svg11.dtd"><svg width="100%" height="100%" viewBox="0 0 50 50" version="1.1" xmlns="http://www.w3.org/2000/svg" xmlns:xlink="http://www.w3.org/1999/xlink" xml:space="preserve" xmlns:serif="http://www.serif.com/" style="fill-rule:evenodd;clip-rule:evenodd;stroke-linejoin:round;stroke-miterlimit:2;"><path d="M37.102,16.88c-0.555,0.242 -1.132,0.433 -1.723,0.571c0.652,-0.609 1.142,-1.371 1.418,-2.222c0.079,-0.243 -0.189,-0.453 -0.412,-0.323c-0.823,0.48 -1.71,0.841 -2.635,1.071c-0.054,0.013 -0.109,0.02 -0.165,0.02c-0.169,0 -0.332,-0.061 -0.461,-0.173c-0.985,-0.854 -2.252,-1.324 -3.567,-1.324c-0.569,0 -1.143,0.087 -1.707,0.259c-1.748,0.533 -3.096,1.951 -3.519,3.701c-0.159,0.656 -0.202,1.313 -0.128,1.952c0.008,0.073 -0.027,0.125 -0.049,0.149c-0.038,0.042 -0.092,0.066 -0.148,0.066c-0.007,0 -0.013,-0 -0.019,-0.001c-3.826,-0.349 -7.276,-2.162 -9.714,-5.104c-0.124,-0.15 -0.363,-0.132 -0.462,0.035c-0.477,0.806 -0.73,1.728 -0.73,2.665c0,1.438 0.587,2.792 1.607,3.779c-0.429,-0.1 -0.844,-0.257 -1.229,-0.468c-0.187,-0.102 -0.416,0.029 -0.419,0.239c-0.027,2.135 1.244,4.035 3.148,4.891c-0.038,0 -0.077,0.001 -0.115,0.001c-0.302,-0 -0.607,-0.029 -0.908,-0.085c-0.21,-0.04 -0.387,0.156 -0.321,0.357c0.617,1.897 2.279,3.296 4.266,3.613c-1.649,1.09 -3.571,1.664 -5.57,1.664l-0.623,-0c-0.193,-0 -0.355,0.123 -0.404,0.306c-0.048,0.18 0.041,0.37 0.204,0.464c2.254,1.29 4.824,1.972 7.434,1.972c2.285,-0 4.422,-0.446 6.352,-1.326c1.77,-0.806 3.334,-1.959 4.648,-3.426c1.225,-1.366 2.182,-2.944 2.846,-4.688c0.633,-1.663 0.968,-3.438 0.968,-5.132l-0,-0.08c-0,-0.272 0.125,-0.528 0.343,-0.702c0.828,-0.662 1.549,-1.44 2.143,-2.314c0.157,-0.231 -0.091,-0.52 -0.349,-0.407Z" style="fill:#f8f9fa;fill-rule:nonzero;"/></svg>