<?xml version="1.0" encoding="utf-8"?>
<!-- Generator: Adobe Illustrator 26.4.1, SVG Export Plug-In . SVG Version: 6.00 Build 0)  -->
<svg
  version="1.1"
  id="Layer_1"
  xmlns="http://www.w3.org/2000/svg"
  xmlns:xlink="http://www.w3.org/1999/xlink"
  x="0px"
  y="0px"
  viewBox="0 0 1080 145"
  enable-background="new 0 0 1080 145"
  xml:space="preserve"
>
  <rect fill="#1B1C1E" width="1080" height="145" />
  <path
    fill="#F8F9FA"
    d="M826.3,64.3l-2.9,4.2v13.9h-13.9v-48h13.9v14.9l10.4-14.9H850l-13.8,19l14.7,28.9h-15.5L826.3,64.3z"
  />
  <path
    fill="#F8F9FA"
    d="M60,66h14.1v0.7c0,2.2,1.4,3.8,3.7,3.8c2,0,3.1-1.3,3.1-2.5c0-2.2-3.4-3.1-7.4-4.5c-5.7-2-13-5.5-13-14.6
	c0-8.4,6.2-14.5,16.6-14.5c10.8,0,16.7,5.4,16.8,15.5H80.4v-0.5c0-2.2-1.2-3.4-3.4-3.4c-2,0-3,1.1-3,2.4c0,1.7,3.3,2.8,7.2,4.2
	c6,2,13.7,5.4,13.7,14.9c0,7.7-5.5,14.9-17.1,14.9C66.5,82.4,60,77,60,66z"
  />
  <path fill="#F8F9FA" d="M147.2,34.4h13.9l14.1,22.4V34.4h13.5v48h-12.9l-15.1-24.1v24.1h-13.5V34.4z" />
  <path
    fill="#F8F9FA"
    d="M142.9,56.7C142.9,56.6,142.9,56.6,142.9,56.7V56c-0.4-12-10-21.6-21.8-21.6S99.7,44,99.3,56v0.7v25.7h43.6
	V56.7z"
  />
  <path
    fill="#F8F9FA"
    d="M613.7,34.4h14.1l6.2,24.8l6.6-24.8h14l6.7,25l6.2-25h13.9l-13.1,48h-13.9l-6.7-25.5l-6.6,25.5h-14
	L613.7,34.4z"
  />
  <path fill="#F8F9FA" d="M415.4,58.4c0-13.2-10.7-24-24-24v48C404.9,82.4,415.4,71.7,415.4,58.4z" />
  <path fill="#F8F9FA" d="M419.7,34.4H448V47h-14.7v5H448v12.6h-14.7v5.3H448v12.5h-28.3V34.4z" />
  <path fill="#F8F9FA" d="M489.5,34.4h15.3v48h-15.3V34.4z" />
  <path
    fill="#F8F9FA"
    d="M509.1,58.4c0-13.4,10.5-24,23.9-24c11.6,0,20.5,7.4,23.4,17.4h-15.1c-1.6-2.9-4.7-4.6-8.4-4.6
	c-6.3,0-10.4,5.1-10.4,11.2s4.1,11.2,10.6,11.2c4.3,0,6.9-1.6,8.4-4.2h-11.6V53.1h27.2v5.3c0,12.4-9.1,24-24.2,24
	C519.5,82.4,509.1,72.1,509.1,58.4z"
  />
  <path fill="#F8F9FA" d="M561.4,34.4h13.9l14.1,22.4V34.4h13.5v48H590l-15.1-24.1v24.1h-13.5V34.4z" />
  <path
    fill="#F8F9FA"
    d="M469.1,82.4c-5.3,0-9.5-1.3-12.4-4s-4.3-6.8-4.3-12.4h13.2v0.6c0,1.1,0.3,2,0.9,2.7s1.4,1.1,2.5,1.1
	c0.9,0,1.6-0.3,2.1-0.8c0.5-0.6,0.8-1.1,0.8-1.7s-0.2-1-0.5-1.4c-0.4-0.4-0.9-0.8-1.5-1.1c-0.6-0.3-1.3-0.7-2.2-1
	c-0.9-0.3-1.7-0.6-2.7-1c-1.3-0.5-2.7-1.1-4.2-1.8c-1.4-0.7-2.7-1.6-3.9-2.7c-1.2-1.1-2.2-2.5-2.9-4.1c-0.8-1.6-1.2-3.6-1.2-5.9
	c0-2.1,0.3-4,1-5.8s1.8-3.3,3.1-4.6c1.3-1.3,3-2.3,4.9-3s4.1-1.1,6.5-1.1c5.1,0,8.9,1.3,11.6,4c2.7,2.6,4.1,6.5,4.1,11.5h-12.6v-0.5
	c0-1.1-0.3-2-0.8-2.6s-1.3-0.9-2.4-0.9c-0.9,0-1.6,0.2-2.1,0.7c-0.4,0.5-0.7,1-0.7,1.7c0,0.9,0.7,1.6,2,2.2c1.3,0.6,2.9,1.2,4.8,1.9
	c1.4,0.5,2.8,1.1,4.3,1.8s2.9,1.7,4.2,2.8c1.3,1.1,2.3,2.6,3.1,4.2c0.8,1.7,1.2,3.7,1.2,6.1c0,1.9-0.3,3.8-1,5.6
	c-0.7,1.8-1.6,3.4-3,4.8c-1.3,1.4-3,2.5-5,3.3C474.2,82,471.8,82.4,469.1,82.4z"
  />
  <path
    fill="#F8F9FA"
    d="M278,58.4c0-13.4,10.5-24,23.9-24c11.6,0,20.5,7.4,23.4,17.4h-15.1c-1.6-2.9-4.7-4.6-8.4-4.6
	c-6.3,0-10.4,5.1-10.4,11.2s4.1,11.2,10.6,11.2c4.3,0,6.9-1.6,8.4-4.2h-11.6V53.1H326v5.3c0,12.4-9.1,24-24.2,24
	C288.3,82.4,278,72.1,278,58.4z"
  />
  <path
    fill="#F8F9FA"
    d="M330.3,58.4c0-13.2,10.5-24,23.9-24c13.3,0,24,10.8,24,24c0,13.3-10.5,24-24,24
	C340.8,82.5,330.3,71.8,330.3,58.4z"
  />
  <path fill="#F8F9FA" d="M227.9,34.4H241v48h-13.1V34.4z" />
  <path fill="#F8F9FA" d="M245.3,34.4h28.3V47h-14.7v5h14.7v12.6h-14.7v5.3h14.7v12.5h-28.3V34.4z" />
  <path
    fill="#F8F9FA"
    d="M199.5,34.4c13.3,0,24,10.7,24,24s-10.4,24-24,24V69.2c6.3,0,10.3-4.9,10.3-10.8s-4.3-10.8-10.3-10.8V34.4z"
  />
  <path fill="#F8F9FA" d="M741.9,34.4h-56.2v13.9h56.2V34.4z" />
  <path fill="#F8F9FA" d="M741.9,68.5h-56.2v13.9h56.2V68.5z" />
  <path fill="#F8F9FA" d="M741.9,51.3h-56.2v13.9h56.2V51.3z" />
  <path fill="#F8F9FA" d="M803.9,34.4h-55.5v13.9h55.5V34.4z" />
  <path fill="#F9F15A" d="M803.9,68.5h-55.5v13.9h55.5V68.5z" />
  <path fill="#E94568" d="M803.9,51.3h-55.5v13.9h55.5V51.3z" />
  <path
    fill="#E94568"
    d="M857.1,72.1c0-2.2,0.5-4.1,1.5-5.8c1-1.7,2.3-3.2,3.8-4.5s3.1-2.5,4.8-3.5c1.8-1,3.4-2,4.9-2.8
	c1.1-0.7,2.1-1.3,3.2-1.9c1.1-0.6,2-1.2,2.8-1.8s1.5-1.2,2.1-1.8s0.8-1.2,0.8-1.8c0-1.1-0.4-1.9-1.1-2.6c-0.8-0.7-1.9-1.1-3.4-1.1
	s-2.8,0.5-3.7,1.6s-1.3,2.3-1.3,3.7v0.3h-13c-0.1-2.4,0.3-4.6,1.1-6.7c0.8-2.1,2-3.9,3.6-5.5c1.6-1.5,3.5-2.8,5.8-3.6
	c2.3-0.9,4.9-1.3,7.8-1.3c2.8,0,5.4,0.4,7.6,1.1c2.2,0.7,4.2,1.8,5.8,3.1s2.8,2.9,3.6,4.8c0.8,1.9,1.3,3.9,1.3,6.2
	c0,2-0.4,3.9-1.3,5.5c-0.8,1.6-1.9,3-3.2,4.4c-1.3,1.3-2.7,2.4-4.3,3.5s-3.1,2.1-4.6,3c-1.4,0.9-2.8,1.7-4.2,2.4
	c-1.3,0.7-2.5,1.4-3.5,2.2h20.9V82h-37.6v-9.9H857.1z"
  />
  <path
    fill="#E94568"
    d="M918.1,70c1.5,0,2.7-0.5,3.6-1.5c0.9-1,1.3-2.2,1.3-3.7v-14c0-1.5-0.4-2.8-1.3-3.8c-0.8-1-2-1.5-3.6-1.5
	c-1.5,0-2.7,0.5-3.6,1.5c-0.9,1-1.3,2.2-1.3,3.6v14c0,1.5,0.4,2.8,1.3,3.8C915.3,69.5,916.5,70,918.1,70z M918,82.6
	c-2.9,0-5.5-0.4-7.8-1.3s-4.3-2.1-5.9-3.6c-1.6-1.6-2.8-3.5-3.7-5.6c-0.9-2.2-1.3-4.6-1.3-7.2V50.7c0-2.6,0.4-5,1.3-7.1
	c0.9-2.2,2.1-4.1,3.8-5.6c1.6-1.6,3.6-2.8,5.9-3.6c2.3-0.9,5-1.3,7.9-1.3s5.4,0.4,7.7,1.3c2.3,0.8,4.3,2.1,5.9,3.6
	c1.6,1.5,2.9,3.4,3.8,5.6c0.9,2.2,1.3,4.6,1.3,7.2v14.1c0,2.6-0.4,4.9-1.3,7.1c-0.8,2.2-2.1,4-3.7,5.6c-1.6,1.6-3.5,2.8-5.9,3.7
	C923.7,82.2,921,82.6,918,82.6z"
  />
  <path
    fill="#F9F15A"
    d="M943.2,72.1c0-2.2,0.5-4.1,1.5-5.8c1-1.7,2.3-3.2,3.8-4.5s3.1-2.5,4.8-3.5c1.8-1,3.4-2,4.9-2.8
	c1.1-0.7,2.1-1.3,3.2-1.9c1.1-0.6,2-1.2,2.8-1.8s1.5-1.2,2-1.8s0.8-1.2,0.8-1.8c0-1.1-0.4-1.9-1.1-2.6c-0.7-0.7-1.9-1.1-3.4-1.1
	s-2.8,0.5-3.7,1.6s-1.3,2.3-1.3,3.7v0.3h-13c-0.1-2.4,0.3-4.6,1.1-6.7c0.8-2.1,2-3.9,3.6-5.5c1.6-1.5,3.5-2.8,5.8-3.6
	c2.3-0.9,4.9-1.3,7.8-1.3c2.8,0,5.4,0.4,7.6,1.1c2.2,0.7,4.2,1.8,5.8,3.1s2.8,2.9,3.6,4.8c0.8,1.9,1.3,3.9,1.3,6.2
	c0,2-0.4,3.9-1.3,5.5c-0.8,1.6-1.9,3-3.2,4.4c-1.3,1.3-2.7,2.4-4.3,3.5s-3.1,2.1-4.6,3c-1.4,0.9-2.8,1.7-4.2,2.4
	c-1.3,0.7-2.5,1.4-3.5,2.2h20.9V82h-37.6L943.2,72.1L943.2,72.1z"
  />
  <path
    fill="#F9F15A"
    d="M987.9,72.1c0-2.2,0.5-4.1,1.5-5.8c1-1.7,2.3-3.2,3.8-4.5s3.1-2.5,4.8-3.5c1.8-1,3.4-2,4.9-2.8
	c1.1-0.7,2.1-1.3,3.2-1.9c1.1-0.6,2-1.2,2.8-1.8s1.5-1.2,2-1.8s0.8-1.2,0.8-1.8c0-1.1-0.4-1.9-1.1-2.6c-0.7-0.7-1.9-1.1-3.4-1.1
	s-2.8,0.5-3.7,1.6s-1.3,2.3-1.3,3.7v0.3h-13c-0.1-2.4,0.3-4.6,1.1-6.7c0.8-2.1,2-3.9,3.6-5.5c1.6-1.5,3.5-2.8,5.8-3.6
	c2.3-0.9,4.9-1.3,7.8-1.3c2.8,0,5.4,0.4,7.6,1.1c2.2,0.7,4.2,1.8,5.8,3.1s2.8,2.9,3.6,4.8c0.8,1.9,1.3,3.9,1.3,6.2
	c0,2-0.4,3.9-1.3,5.5c-0.8,1.6-1.9,3-3.2,4.4c-1.3,1.3-2.7,2.4-4.3,3.5s-3.1,2.1-4.6,3c-1.4,0.9-2.8,1.7-4.2,2.4
	c-1.3,0.7-2.5,1.4-3.5,2.2h20.9V82H988L987.9,72.1L987.9,72.1z"
  />
  <path
    fill="#F8F9FA"
    d="M67.2,111.3c-2.2,0-3.9-0.5-5.1-1.6c-1.2-1.1-1.8-2.7-1.8-4.8h5.4v0.2c0,0.4,0.1,0.8,0.4,1.1
	c0.2,0.3,0.6,0.4,1,0.4s0.7-0.1,0.9-0.3c0.2-0.2,0.3-0.4,0.3-0.7c0-0.2-0.1-0.4-0.2-0.5c-0.2-0.2-0.4-0.3-0.6-0.5
	c-0.2-0.1-0.6-0.3-0.9-0.4s-0.7-0.2-1.1-0.4c-0.6-0.2-1.1-0.4-1.7-0.7c-0.6-0.3-1.1-0.6-1.6-1.1c-0.5-0.4-0.9-1-1.2-1.6
	s-0.5-1.4-0.5-2.3c0-0.8,0.1-1.6,0.4-2.3c0.3-0.7,0.7-1.3,1.3-1.8s1.2-0.9,2-1.2c0.8-0.3,1.7-0.4,2.7-0.4c2.1,0,3.7,0.5,4.8,1.6
	c1.1,1,1.7,2.5,1.7,4.5h-5.2v-0.2c0-0.4-0.1-0.8-0.3-1s-0.5-0.3-1-0.3c-0.4,0-0.7,0.1-0.9,0.3c-0.2,0.2-0.3,0.4-0.3,0.7
	c0,0.3,0.3,0.6,0.8,0.9c0.5,0.2,1.2,0.5,1.9,0.8c0.6,0.2,1.2,0.4,1.8,0.7c0.6,0.3,1.2,0.6,1.7,1.1c0.5,0.4,0.9,1,1.3,1.7
	c0.3,0.6,0.5,1.4,0.5,2.4c0,0.8-0.1,1.5-0.4,2.2s-0.7,1.3-1.2,1.9c-0.5,0.5-1.2,1-2.1,1.3C69.3,111.1,68.3,111.3,67.2,111.3z
	 M76.7,92.8h10.8v4.8h-5.6v1.9h5.6v4.8h-5.6v2h5.6v4.8H76.7V92.8z M90.6,92.8h6.1c1.2,0,2.3,0.2,3.2,0.6c0.9,0.4,1.7,0.9,2.3,1.5
	c0.6,0.6,1.1,1.3,1.4,2.2c0.3,0.8,0.5,1.7,0.5,2.6s-0.2,1.8-0.5,2.7c-0.3,0.8-0.8,1.6-1.4,2.2s-1.4,1.1-2.3,1.5s-2,0.6-3.2,0.6h-0.9
	v4.4h-5.2V92.8z M95.8,97.5v4.2h0.8c0.6,0,1.1-0.2,1.5-0.5s0.7-0.9,0.7-1.6s-0.2-1.2-0.7-1.6c-0.4-0.4-0.9-0.6-1.5-0.6L95.8,97.5
	L95.8,97.5z M110.8,97.6h-4.3v-4.8H120v4.8h-4.1V111h-5L110.8,97.6L110.8,97.6z M123,92.8h10.8v4.8h-5.6v1.9h5.6v4.8h-5.6v2h5.6v4.8
	H123V92.8z M136.8,92.8h5.3l3.8,5.2l3.9-5.2h5V111h-5.2v-9.8l-3.7,5L142,101v10h-5.2V92.8z M157.8,92.8h6.7c2.4,0,4.1,0.4,5.2,1.3
	c1.1,0.8,1.7,2.2,1.7,3.9c0,0.8-0.1,1.5-0.4,2.1c-0.3,0.6-0.7,1-1.1,1.4c0.6,0.4,1.1,0.9,1.5,1.5s0.5,1.4,0.5,2.3c0,2-0.7,3.5-2,4.4
	s-3.1,1.3-5.5,1.3h-6.5L157.8,92.8L157.8,92.8z M162.8,104.1v2.4h1.7c0.7,0,1.2-0.1,1.4-0.3c0.3-0.2,0.4-0.5,0.4-1
	c0-0.4-0.1-0.7-0.4-0.9c-0.2-0.2-0.7-0.2-1.3-0.2H162.8z M162.8,97.2v2.2h2c0.5,0,0.8-0.1,1.1-0.3c0.2-0.2,0.3-0.5,0.3-0.8
	c0-0.7-0.5-1.1-1.4-1.1C164.8,97.2,162.8,97.2,162.8,97.2z M174.7,92.8h10.8v4.8h-5.6v1.9h5.6v4.8h-5.6v2h5.6v4.8h-10.8V92.8z
	 M188.5,92.8h6.6c1.2,0,2.2,0.2,3,0.5c0.9,0.3,1.6,0.8,2.2,1.4c0.6,0.6,1.1,1.3,1.4,2c0.3,0.8,0.4,1.6,0.4,2.5
	c0,1.2-0.2,2.3-0.8,3.3c-0.5,1-1.3,1.8-2.3,2.3l3.5,6.2h-5.9l-3-6v6h-5.2V92.8H188.5z M193.7,97.5v3.6h1.1c0.5,0,0.9-0.2,1.3-0.4
	c0.4-0.3,0.6-0.8,0.6-1.4s-0.2-1-0.6-1.3c-0.4-0.3-0.8-0.5-1.3-0.5C194.8,97.5,193.7,97.5,193.7,97.5z M222.3,111.2
	c-1.1,0-2.1-0.1-3-0.4s-1.6-0.7-2.3-1.2c-0.6-0.5-1.1-1.2-1.4-1.9c-0.3-0.8-0.5-1.6-0.5-2.6c0-0.8,0.2-1.5,0.5-2.2s0.8-1.3,1.4-1.8
	c-0.4-0.4-0.7-0.9-0.9-1.4s-0.3-1.1-0.3-1.7c0-0.9,0.2-1.7,0.5-2.4c0.4-0.7,0.8-1.3,1.4-1.8c0.6-0.5,1.3-0.8,2.1-1.1
	c0.8-0.2,1.6-0.4,2.5-0.4s1.7,0.1,2.5,0.4c0.8,0.2,1.5,0.6,2.1,1.1s1,1.1,1.4,1.8c0.3,0.7,0.5,1.5,0.5,2.4c0,1.2-0.3,2.2-1.1,3.1
	c0.5,0.5,0.9,1.1,1.2,1.8c0.3,0.7,0.4,1.4,0.4,2.2c0,1-0.2,1.8-0.5,2.6c-0.3,0.8-0.8,1.4-1.4,1.9c-0.6,0.5-1.4,0.9-2.2,1.2
	C224.4,111.1,223.4,111.2,222.3,111.2z M222.3,106.8c0.7,0,1.2-0.1,1.6-0.4c0.4-0.3,0.6-0.7,0.6-1.2s-0.2-0.9-0.6-1.2
	c-0.4-0.3-0.9-0.4-1.6-0.4c-0.7,0-1.2,0.1-1.6,0.4c-0.4,0.3-0.6,0.7-0.6,1.2s0.2,0.9,0.6,1.2S221.6,106.8,222.3,106.8z M222.3,99.6
	c0.6,0,1-0.1,1.4-0.4c0.4-0.2,0.6-0.6,0.6-1.1s-0.2-0.8-0.6-1.1c-0.3-0.2-0.8-0.4-1.4-0.4c-0.6,0-1,0.1-1.4,0.4
	c-0.4,0.2-0.6,0.6-0.6,1.1s0.2,0.8,0.6,1.1C221.3,99.4,221.8,99.6,222.3,99.6z M242.3,102.5h9.2v4.3h-9.2V102.5z M264.5,106.2h4.6
	v-6.5c-0.3,0.4-0.7,0.7-1.1,0.8c-0.5,0.2-1,0.2-1.6,0.2h-0.2v-4.9h0.1c0.6,0,1.1-0.1,1.5-0.3c0.4-0.2,0.7-0.5,0.9-0.8
	c0.2-0.3,0.4-0.7,0.5-1c0.1-0.4,0.1-0.7,0.1-1.1h5.1V106h4.3v4.8h-14.2L264.5,106.2L264.5,106.2z M281.7,107.3
	c0-0.8,0.2-1.6,0.6-2.2s0.9-1.2,1.4-1.7c0.6-0.5,1.2-0.9,1.8-1.3c0.7-0.4,1.3-0.7,1.9-1.1c0.4-0.2,0.8-0.5,1.2-0.7
	c0.4-0.2,0.8-0.5,1-0.7c0.3-0.2,0.6-0.5,0.8-0.7c0.2-0.2,0.3-0.4,0.3-0.7c0-0.4-0.1-0.7-0.4-1s-0.7-0.4-1.3-0.4
	c-0.6,0-1,0.2-1.4,0.6c-0.3,0.4-0.5,0.9-0.5,1.4V99h-4.9c0-0.9,0.1-1.7,0.4-2.5s0.8-1.5,1.4-2.1s1.3-1,2.2-1.4
	c0.9-0.3,1.9-0.5,3-0.5s2,0.1,2.9,0.4c0.8,0.3,1.6,0.7,2.2,1.2s1.1,1.1,1.4,1.8c0.3,0.7,0.5,1.5,0.5,2.3s-0.2,1.5-0.5,2.1
	s-0.7,1.2-1.2,1.7s-1,0.9-1.6,1.3s-1.2,0.8-1.8,1.1c-0.5,0.3-1.1,0.6-1.6,0.9s-0.9,0.5-1.3,0.8h7.9v4.8h-14.2v-3.6H281.7z
	 M299.8,106.4h5.2l-2.1,6.1h-4.3L299.8,106.4z M317.8,107.3c0-0.8,0.2-1.6,0.6-2.2s0.9-1.2,1.4-1.7c0.6-0.5,1.2-0.9,1.8-1.3
	c0.7-0.4,1.3-0.7,1.9-1.1c0.4-0.2,0.8-0.5,1.2-0.7c0.4-0.2,0.8-0.5,1-0.7c0.3-0.2,0.6-0.5,0.8-0.7c0.2-0.2,0.3-0.4,0.3-0.7
	c0-0.4-0.1-0.7-0.4-1s-0.7-0.4-1.3-0.4c-0.6,0-1.1,0.2-1.4,0.6s-0.5,0.9-0.5,1.4V99h-4.9c0-0.9,0.1-1.7,0.4-2.5s0.8-1.5,1.3-2.1
	c0.6-0.6,1.3-1,2.2-1.4c0.9-0.3,1.9-0.5,2.9-0.5c1.1,0,2,0.1,2.9,0.4s1.6,0.7,2.2,1.2s1.1,1.1,1.4,1.8c0.3,0.7,0.5,1.5,0.5,2.3
	s-0.2,1.5-0.5,2.1s-0.7,1.2-1.2,1.7s-1,0.9-1.6,1.3s-1.2,0.8-1.8,1.1c-0.5,0.3-1.1,0.6-1.6,0.9s-0.9,0.5-1.3,0.8h7.9v4.8h-14.2
	L317.8,107.3L317.8,107.3z M342.1,106.5c0.6,0,1-0.2,1.3-0.5c0.3-0.4,0.5-0.9,0.5-1.4v-5.3c0-0.6-0.2-1.1-0.5-1.4
	c-0.3-0.4-0.8-0.5-1.4-0.5s-1,0.2-1.4,0.6c-0.3,0.4-0.5,0.8-0.5,1.4v5.3c0,0.6,0.2,1.1,0.5,1.4C341,106.3,341.5,106.5,342.1,106.5z
	 M342.1,111.2c-1.1,0-2.1-0.2-2.9-0.5c-0.9-0.3-1.6-0.8-2.2-1.4s-1.1-1.3-1.4-2.1c-0.3-0.8-0.5-1.7-0.5-2.7v-5.4
	c0-1,0.2-1.9,0.5-2.7c0.3-0.8,0.8-1.5,1.4-2.1s1.4-1.1,2.2-1.4c0.9-0.3,1.9-0.5,3-0.5s2.1,0.2,2.9,0.5c0.9,0.3,1.6,0.8,2.2,1.4
	s1.1,1.3,1.4,2.1c0.3,0.8,0.5,1.7,0.5,2.7v5.3c0,1-0.2,1.9-0.5,2.7c-0.3,0.8-0.8,1.5-1.4,2.1s-1.3,1.1-2.2,1.4
	C344.2,111.1,343.2,111.2,342.1,111.2z M352.2,107.3c0-0.8,0.2-1.6,0.6-2.2s0.9-1.2,1.4-1.7c0.6-0.5,1.2-0.9,1.8-1.3
	c0.7-0.4,1.3-0.7,1.8-1.1c0.4-0.2,0.8-0.5,1.2-0.7c0.4-0.2,0.8-0.5,1-0.7c0.3-0.2,0.6-0.5,0.8-0.7c0.2-0.2,0.3-0.4,0.3-0.7
	c0-0.4-0.1-0.7-0.4-1s-0.7-0.4-1.3-0.4c-0.6,0-1,0.2-1.4,0.6c-0.3,0.4-0.5,0.9-0.5,1.4V99h-4.9c0-0.9,0.1-1.7,0.4-2.5
	s0.8-1.5,1.4-2.1s1.3-1,2.2-1.4c0.9-0.3,1.9-0.5,3-0.5s2,0.1,2.9,0.4s1.6,0.7,2.2,1.2s1.1,1.1,1.4,1.8c0.3,0.7,0.5,1.5,0.5,2.3
	s-0.2,1.5-0.5,2.1s-0.7,1.2-1.2,1.7s-1,0.9-1.6,1.3s-1.2,0.8-1.8,1.1c-0.5,0.3-1.1,0.6-1.6,0.9s-0.9,0.5-1.3,0.8h7.9v4.8h-14.2
	L352.2,107.3L352.2,107.3z M369.4,106.2h4.6v-6.5c-0.3,0.4-0.7,0.7-1.1,0.8c-0.5,0.2-1,0.2-1.6,0.2H371v-4.9h0.1
	c0.6,0,1.1-0.1,1.5-0.3c0.4-0.2,0.7-0.5,0.9-0.8c0.2-0.3,0.4-0.7,0.5-1c0.1-0.4,0.2-0.7,0.2-1.1h5.1V106h4.3v4.8h-14.2V106.2z"
  />
  <path
    fill="#F8F9FA"
    d="M464.5,111.3c-2.2,0-3.9-0.5-5.1-1.6s-1.8-2.7-1.8-4.8h5.4v0.2c0,0.4,0.1,0.8,0.4,1.1c0.2,0.3,0.6,0.4,1,0.4
	s0.7-0.1,0.9-0.3c0.2-0.2,0.3-0.4,0.3-0.7c0-0.2-0.1-0.4-0.2-0.5c-0.1-0.2-0.4-0.3-0.6-0.5c-0.2-0.1-0.5-0.3-0.9-0.4
	s-0.7-0.2-1.1-0.4c-0.5-0.2-1.1-0.4-1.7-0.7c-0.6-0.3-1.1-0.6-1.6-1.1c-0.5-0.4-0.9-1-1.2-1.6c-0.3-0.6-0.5-1.4-0.5-2.3
	c0-0.8,0.1-1.6,0.4-2.3c0.3-0.7,0.7-1.3,1.3-1.8c0.5-0.5,1.2-0.9,2-1.2c0.8-0.3,1.7-0.4,2.6-0.4c2.1,0,3.7,0.5,4.8,1.6
	c1.1,1,1.7,2.5,1.7,4.5h-5.1v-0.2c0-0.4-0.1-0.8-0.3-1c-0.2-0.2-0.5-0.3-1-0.3c-0.4,0-0.7,0.1-0.9,0.3c-0.2,0.2-0.3,0.4-0.3,0.7
	c0,0.3,0.3,0.6,0.8,0.9c0.5,0.2,1.2,0.5,2,0.8c0.6,0.2,1.2,0.4,1.8,0.7c0.6,0.3,1.2,0.6,1.7,1.1c0.5,0.4,0.9,1,1.3,1.7
	c0.3,0.6,0.5,1.4,0.5,2.4c0,0.8-0.1,1.5-0.4,2.2s-0.7,1.3-1.2,1.9c-0.5,0.5-1.2,1-2.1,1.3C466.5,111.1,465.6,111.3,464.5,111.3z
	 M474,92.8h6c1.3,0,2.5,0.2,3.6,0.7s2.1,1.1,3,1.9s1.5,1.8,2,2.9s0.7,2.3,0.7,3.6s-0.2,2.5-0.7,3.6s-1.1,2.1-2,2.9
	c-0.8,0.8-1.8,1.4-3,1.9c-1.1,0.5-2.4,0.7-3.7,0.7h-6V92.8H474z M479.2,97.7v8.4h0.8c0.6,0,1.2-0.1,1.6-0.3c0.5-0.2,0.9-0.5,1.3-0.9
	s0.6-0.8,0.8-1.3c0.2-0.5,0.3-1.1,0.3-1.7s-0.1-1.1-0.3-1.6c-0.2-0.5-0.5-1-0.8-1.3s-0.8-0.7-1.3-0.9c-0.5-0.2-1-0.3-1.6-0.3
	L479.2,97.7L479.2,97.7z M492.2,92.8h6c1.3,0,2.5,0.2,3.6,0.7s2.1,1.1,3,1.9c0.8,0.8,1.5,1.8,2,2.9s0.7,2.3,0.7,3.6
	s-0.2,2.5-0.7,3.6s-1.1,2.1-2,2.9c-0.8,0.8-1.8,1.4-3,1.9c-1.1,0.5-2.4,0.7-3.7,0.7h-6V92.8H492.2z M497.4,97.7v8.4h0.8
	c0.6,0,1.2-0.1,1.6-0.3c0.5-0.2,0.9-0.5,1.3-0.9s0.6-0.8,0.8-1.3c0.2-0.5,0.3-1.1,0.3-1.7s-0.1-1.1-0.3-1.6c-0.2-0.5-0.5-1-0.8-1.3
	s-0.8-0.7-1.3-0.9c-0.5-0.2-1-0.3-1.6-0.3L497.4,97.7L497.4,97.7z M510.5,92.8h10.8v4.8h-5.6v1.9h5.6v4.8h-5.6v2h5.6v4.8h-10.8V92.8
	z M530.9,111.3c-2.2,0-3.9-0.5-5.1-1.6c-1.2-1.1-1.8-2.7-1.8-4.8h5.4v0.2c0,0.4,0.1,0.8,0.4,1.1c0.2,0.3,0.6,0.4,1,0.4
	s0.7-0.1,0.9-0.3c0.2-0.2,0.3-0.4,0.3-0.7c0-0.2-0.1-0.4-0.2-0.5c-0.1-0.2-0.4-0.3-0.6-0.5c-0.2-0.1-0.5-0.3-0.9-0.4
	s-0.7-0.2-1.1-0.4c-0.5-0.2-1.1-0.4-1.7-0.7c-0.6-0.3-1.1-0.6-1.6-1.1c-0.5-0.4-0.9-1-1.2-1.6s-0.5-1.4-0.5-2.3
	c0-0.8,0.1-1.6,0.4-2.3c0.3-0.7,0.7-1.3,1.3-1.8s1.2-0.9,2-1.2c0.8-0.3,1.7-0.4,2.7-0.4c2.1,0,3.7,0.5,4.8,1.6
	c1.1,1,1.7,2.5,1.7,4.5H532v-0.2c0-0.4-0.1-0.8-0.3-1s-0.5-0.3-1-0.3c-0.4,0-0.7,0.1-0.9,0.3c-0.2,0.2-0.3,0.4-0.3,0.7
	c0,0.3,0.3,0.6,0.8,0.9c0.5,0.2,1.2,0.5,2,0.8c0.6,0.2,1.2,0.4,1.8,0.7c0.6,0.3,1.2,0.6,1.7,1.1c0.5,0.4,0.9,1,1.3,1.7
	c0.3,0.6,0.5,1.4,0.5,2.4c0,0.8-0.1,1.5-0.4,2.2c-0.3,0.7-0.7,1.3-1.2,1.9c-0.5,0.5-1.2,1-2.1,1.3
	C532.9,111.1,532,111.3,530.9,111.3z M540.4,92.8h5.3V111h-5.3V92.8z M558,111.2c-1.3,0-2.5-0.2-3.7-0.7c-1.1-0.5-2.1-1.1-3-2
	c-0.8-0.8-1.5-1.8-2-3s-0.7-2.4-0.7-3.7c0-1.3,0.2-2.5,0.7-3.7c0.5-1.1,1.1-2.1,2-3c0.9-0.8,1.8-1.5,3-2c1.1-0.5,2.4-0.7,3.7-0.7
	c1.1,0,2.2,0.2,3.2,0.5s1.9,0.8,2.7,1.4s1.5,1.3,2,2.2c0.6,0.8,1,1.7,1.3,2.7h-5.9c-0.3-0.6-0.8-1-1.3-1.3c-0.6-0.3-1.2-0.5-2-0.5
	c-0.6,0-1.2,0.1-1.7,0.3s-0.9,0.6-1.3,1c-0.3,0.4-0.6,0.9-0.8,1.4s-0.3,1.1-0.3,1.7s0.1,1.2,0.3,1.7s0.5,1,0.8,1.4
	c0.4,0.4,0.8,0.7,1.3,1c0.5,0.2,1.1,0.3,1.7,0.3c0.8,0,1.5-0.1,2-0.4s0.9-0.7,1.2-1.2h-4.5v-4.8h10.6v2.1c0,1.2-0.2,2.4-0.7,3.5
	c-0.4,1.1-1.1,2.1-1.9,3c-0.8,0.9-1.8,1.6-3,2.1C560.7,111,559.4,111.2,558,111.2z M570.4,92.8h5.3l5.4,8.5v-8.5h5.2V111h-4.9
	l-5.8-9.2v9.2h-5.2V92.8z M588.8,92.8h5.2l2.3,9.4l2.5-9.4h5.2l2.5,9.5l2.3-9.5h5.2l-4.9,18.2h-5.2l-2.5-9.7L599,111h-5.2
	L588.8,92.8z M616.6,92.8h10.8v4.8h-5.6v1.9h5.6v4.8h-5.6v2h5.6v4.8h-10.8V92.8z M630.4,92.8h10.8v4.8h-5.6v1.9h5.6v4.8h-5.6v2h5.6
	v4.8h-10.8V92.8z M650.6,104.1l-1.1,1.6v5.3h-5.2V92.8h5.2v5.7l3.9-5.7h6.1l-5.2,7.2l5.5,11H654L650.6,104.1z M662.1,108.4
	c0-0.8,0.3-1.5,0.8-2.1c0.5-0.5,1.2-0.8,2.1-0.8s1.5,0.3,2,0.8s0.8,1.2,0.8,2.1s-0.3,1.5-0.8,2.1c-0.5,0.5-1.2,0.8-2,0.8
	s-1.5-0.3-2.1-0.8C662.3,109.9,662.1,109.2,662.1,108.4z M679.9,111.2c-1.3,0-2.5-0.2-3.7-0.7c-1.1-0.5-2.1-1.2-3-2
	c-0.8-0.8-1.5-1.8-2-3s-0.7-2.4-0.7-3.7s0.2-2.5,0.7-3.7c0.5-1.1,1.1-2.1,2-3c0.8-0.8,1.8-1.5,3-2c1.1-0.5,2.4-0.8,3.7-0.8
	s2.5,0.2,3.7,0.8c1.1,0.5,2.1,1.2,3,2s1.5,1.8,2,3c0.5,1.1,0.7,2.3,0.7,3.7s-0.2,2.5-0.7,3.7c-0.5,1.1-1.1,2.1-2,3
	c-0.8,0.8-1.8,1.5-3,2C682.5,111,681.2,111.2,679.9,111.2z M679.9,106.1c0.6,0,1.2-0.1,1.7-0.3c0.5-0.2,0.9-0.5,1.3-0.9
	c0.3-0.4,0.6-0.8,0.8-1.3s0.3-1.1,0.3-1.7s-0.1-1.1-0.3-1.6s-0.5-1-0.8-1.3s-0.8-0.7-1.3-0.9c-0.5-0.2-1-0.3-1.6-0.3
	s-1.1,0.1-1.6,0.3c-0.5,0.2-0.9,0.5-1.2,0.9c-0.4,0.4-0.6,0.8-0.8,1.3s-0.3,1.1-0.3,1.6c0,0.6,0.1,1.1,0.3,1.7
	c0.2,0.5,0.5,0.9,0.8,1.3c0.4,0.4,0.8,0.7,1.2,0.9C678.7,106,679.3,106.1,679.9,106.1z M692.2,92.8h6.6c1.1,0,2.2,0.2,3,0.5
	c0.9,0.3,1.6,0.8,2.2,1.4c0.6,0.6,1,1.3,1.3,2c0.3,0.8,0.5,1.6,0.5,2.5c0,1.2-0.2,2.3-0.8,3.3c-0.5,1-1.3,1.8-2.3,2.3l3.5,6.2h-5.9
	l-3-6v6h-5.2V92.8H692.2z M697.4,97.5v3.6h1.2c0.5,0,0.9-0.2,1.3-0.4c0.4-0.3,0.6-0.8,0.6-1.4s-0.2-1-0.6-1.3
	c-0.4-0.3-0.8-0.5-1.3-0.5C698.6,97.5,697.4,97.5,697.4,97.5z M717.9,111.2c-1.3,0-2.5-0.2-3.7-0.7c-1.1-0.5-2.1-1.1-3-2
	c-0.8-0.8-1.5-1.8-2-3s-0.7-2.4-0.7-3.7c0-1.3,0.2-2.5,0.7-3.7c0.5-1.1,1.1-2.1,2-3c0.8-0.8,1.8-1.5,3-2c1.1-0.5,2.4-0.7,3.7-0.7
	c1.1,0,2.2,0.2,3.2,0.5s1.9,0.8,2.7,1.4s1.5,1.3,2,2.2c0.6,0.8,1,1.7,1.3,2.7h-5.9c-0.3-0.6-0.8-1-1.3-1.3c-0.6-0.3-1.2-0.5-2-0.5
	c-0.6,0-1.2,0.1-1.7,0.3s-0.9,0.6-1.3,1c-0.3,0.4-0.6,0.9-0.8,1.4s-0.3,1.1-0.3,1.7s0.1,1.2,0.3,1.7s0.5,1,0.8,1.4
	c0.4,0.4,0.8,0.7,1.3,1c0.5,0.2,1.1,0.3,1.7,0.3c0.8,0,1.5-0.1,2-0.4s0.9-0.7,1.2-1.2h-4.5v-4.8h10.6v2.1c0,1.2-0.2,2.4-0.7,3.5
	c-0.4,1.1-1.1,2.1-1.9,3c-0.8,0.9-1.8,1.6-3,2.1C720.7,111,719.4,111.2,717.9,111.2z"
  />
  <path
    fill="#F8F9FA"
    d="M812.1,107.9H810v3.1h-5.1v-3.1h-3v-5h3v-2.1h-3v-5h3v-3.1h5.1v3.1h2.1v-3.1h5.1v3.1h2.9v5h-2.9v2.1h2.9v5
	h-2.9v3.1h-5.1V107.9z M810,102.9h2.1v-2.1H810V102.9z M830,111.3c-2.2,0-3.9-0.5-5.1-1.6c-1.2-1.1-1.8-2.7-1.8-4.8h5.4v0.2
	c0,0.4,0.1,0.8,0.4,1.1c0.2,0.3,0.6,0.4,1,0.4s0.7-0.1,0.9-0.3c0.2-0.2,0.3-0.4,0.3-0.7c0-0.2-0.1-0.4-0.2-0.5
	c-0.1-0.2-0.4-0.3-0.6-0.5c-0.2-0.1-0.5-0.3-0.9-0.4s-0.7-0.2-1.1-0.4c-0.5-0.2-1.1-0.4-1.7-0.7c-0.6-0.3-1.1-0.6-1.6-1.1
	c-0.5-0.4-0.9-1-1.2-1.6s-0.5-1.4-0.5-2.3c0-0.8,0.1-1.6,0.4-2.3c0.3-0.7,0.7-1.3,1.3-1.8s1.2-0.9,2-1.2c0.8-0.3,1.7-0.4,2.7-0.4
	c2.1,0,3.7,0.5,4.8,1.6c1.1,1,1.7,2.5,1.7,4.5H831v-0.2c0-0.4-0.1-0.8-0.3-1s-0.5-0.3-1-0.3c-0.4,0-0.7,0.1-0.9,0.3
	c-0.2,0.2-0.3,0.4-0.3,0.7c0,0.3,0.3,0.6,0.8,0.9c0.6,0.2,1.2,0.5,2,0.8c0.6,0.2,1.2,0.4,1.8,0.7c0.6,0.3,1.2,0.6,1.7,1.1
	c0.5,0.4,0.9,1,1.3,1.7c0.3,0.6,0.5,1.4,0.5,2.4c0,0.8-0.1,1.5-0.4,2.2c-0.3,0.7-0.7,1.3-1.2,1.9c-0.5,0.5-1.2,1-2,1.3
	C832,111.1,831.1,111.3,830,111.3z M839.5,92.8h6c1.3,0,2.5,0.2,3.7,0.7c1.1,0.5,2.1,1.1,3,1.9s1.5,1.8,2,2.9s0.7,2.3,0.7,3.6
	s-0.2,2.5-0.7,3.6s-1.1,2.1-2,2.9c-0.8,0.8-1.8,1.4-3,1.9c-1.1,0.5-2.4,0.7-3.7,0.7h-6V92.8z M844.7,97.7v8.4h0.8
	c0.6,0,1.2-0.1,1.7-0.3c0.5-0.2,0.9-0.5,1.3-0.9c0.4-0.4,0.6-0.8,0.8-1.3s0.3-1.1,0.3-1.7s-0.1-1.1-0.3-1.6s-0.5-1-0.8-1.3
	c-0.4-0.4-0.8-0.7-1.3-0.9c-0.5-0.2-1-0.3-1.6-0.3L844.7,97.7L844.7,97.7z M857.7,92.8h6c1.3,0,2.5,0.2,3.7,0.7
	c1.1,0.5,2.1,1.1,3,1.9s1.5,1.8,2,2.9s0.7,2.3,0.7,3.6s-0.2,2.5-0.7,3.6s-1.1,2.1-2,2.9c-0.8,0.8-1.8,1.4-3,1.9
	c-1.1,0.5-2.4,0.7-3.7,0.7h-6V92.8z M862.9,97.7v8.4h0.8c0.6,0,1.2-0.1,1.7-0.3c0.5-0.2,0.9-0.5,1.3-0.9c0.4-0.4,0.6-0.8,0.8-1.3
	s0.3-1.1,0.3-1.7s-0.1-1.1-0.3-1.6s-0.5-1-0.8-1.3c-0.4-0.4-0.8-0.7-1.3-0.9c-0.5-0.2-1-0.3-1.6-0.3L862.9,97.7L862.9,97.7z
	 M876,92.8h10.8v4.8h-5.6v1.9h5.6v4.8h-5.6v2h5.6v4.8H876V92.8z M896.4,111.3c-2.2,0-3.9-0.5-5.1-1.6c-1.2-1.1-1.8-2.7-1.8-4.8h5.4
	v0.2c0,0.4,0.1,0.8,0.4,1.1c0.2,0.3,0.6,0.4,1,0.4s0.7-0.1,0.9-0.3c0.2-0.2,0.3-0.4,0.3-0.7c0-0.2-0.1-0.4-0.2-0.5
	c-0.2-0.2-0.4-0.3-0.6-0.5c-0.2-0.1-0.5-0.3-0.9-0.4c-0.3-0.1-0.7-0.2-1.1-0.4c-0.5-0.2-1.1-0.4-1.7-0.7c-0.6-0.3-1.1-0.6-1.6-1.1
	c-0.5-0.4-0.9-1-1.2-1.6s-0.5-1.4-0.5-2.3c0-0.8,0.1-1.6,0.4-2.3c0.3-0.7,0.7-1.3,1.3-1.8s1.2-0.9,2-1.2c0.8-0.3,1.7-0.4,2.6-0.4
	c2.1,0,3.7,0.5,4.8,1.6c1.1,1,1.7,2.5,1.7,4.5h-5.1v-0.2c0-0.4-0.1-0.8-0.3-1s-0.5-0.3-1-0.3c-0.4,0-0.7,0.1-0.9,0.3
	c-0.2,0.2-0.3,0.4-0.3,0.7c0,0.3,0.3,0.6,0.8,0.9c0.5,0.2,1.2,0.5,2,0.8c0.6,0.2,1.2,0.4,1.8,0.7c0.6,0.3,1.2,0.6,1.7,1.1
	c0.5,0.4,0.9,1,1.3,1.7c0.3,0.6,0.5,1.4,0.5,2.4c0,0.8-0.1,1.5-0.4,2.2c-0.3,0.7-0.7,1.3-1.2,1.9c-0.5,0.5-1.2,1-2,1.3
	C898.4,111.1,897.5,111.3,896.4,111.3z M905.9,92.8h5.3V111h-5.3V92.8z M923.5,111.2c-1.3,0-2.5-0.2-3.7-0.7c-1.1-0.5-2.1-1.1-2.9-2
	c-0.8-0.8-1.5-1.8-2-3s-0.7-2.4-0.7-3.7c0-1.3,0.2-2.5,0.7-3.7c0.5-1.1,1.1-2.1,2-3c0.9-0.8,1.8-1.5,3-2c1.1-0.5,2.4-0.7,3.7-0.7
	c1.1,0,2.2,0.2,3.2,0.5s1.9,0.8,2.7,1.4s1.5,1.3,2,2.2c0.6,0.8,1,1.7,1.3,2.7h-5.9c-0.3-0.6-0.8-1-1.3-1.3c-0.6-0.3-1.2-0.5-2-0.5
	c-0.6,0-1.2,0.1-1.7,0.3s-0.9,0.6-1.3,1c-0.4,0.4-0.6,0.9-0.8,1.4s-0.3,1.1-0.3,1.7s0.1,1.2,0.3,1.7s0.5,1,0.8,1.4
	c0.4,0.4,0.8,0.7,1.3,1c0.5,0.2,1.1,0.3,1.7,0.3c0.9,0,1.5-0.1,2.1-0.4c0.5-0.3,0.9-0.7,1.2-1.2h-4.5v-4.8H933v2.1
	c0,1.2-0.2,2.4-0.6,3.5c-0.4,1.1-1.1,2.1-1.9,3c-0.8,0.9-1.8,1.6-3,2.1C926.2,111,924.9,111.2,923.5,111.2z M935.9,92.8h5.3l5.4,8.5
	v-8.5h5.2V111h-4.9l-5.8-9.2v9.2h-5.2V92.8z M954.4,92.8h5.2l2.3,9.4l2.5-9.4h5.2l2.5,9.5l2.3-9.5h5.2l-4.9,18.2h-5.2l-2.5-9.7
	l-2.5,9.7h-5.2L954.4,92.8z M982.1,92.8h10.8v4.8h-5.6v1.9h5.6v4.8h-5.6v2h5.6v4.8h-10.8V92.8z M995.9,92.8h10.8v4.8h-5.6v1.9h5.6
	v4.8h-5.6v2h5.6v4.8h-10.8V92.8z M1016.1,104.1l-1.1,1.6v5.3h-5.2V92.8h5.2v5.7l3.9-5.7h6.1l-5.2,7.2l5.5,11h-5.8L1016.1,104.1z"
  />
</svg>
