<?xml version="1.0" encoding="UTF-8" standalone="no"?><!DOCTYPE svg PUBLIC "-//W3C//DTD SVG 1.1//EN" "http://www.w3.org/Graphics/SVG/1.1/DTD/svg11.dtd"><svg width="100%" height="100%" viewBox="0 0 46 59" version="1.1" xmlns="http://www.w3.org/2000/svg" xmlns:xlink="http://www.w3.org/1999/xlink" xml:space="preserve" xmlns:serif="http://www.serif.com/" style="fill-rule:evenodd;clip-rule:evenodd;stroke-linejoin:round;stroke-miterlimit:2;"><rect id="Artboard2" x="0" y="0" width="45.44" height="58.4" style="fill:none;"/><clipPath id="_clip1"><rect x="0" y="0" width="45.44" height="58.4"/></clipPath><g clip-path="url(#_clip1)"><path d="M0.8,43.56l14.8,0l-0,-20.88c-0.907,1.227 -2.107,2.133 -3.6,2.72c-1.493,0.533 -3.173,0.8 -5.04,0.8l-0.8,0l-0,-15.68l0.4,-0c1.92,-0 3.493,-0.32 4.72,-0.96c1.227,-0.64 2.187,-1.44 2.88,-2.4c0.747,-1.013 1.253,-2.08 1.52,-3.2c0.32,-1.173 0.48,-2.293 0.48,-3.36l16.24,-0l0,42.96l13.84,0l0,15.44l-45.44,0l0,-15.44Z" style="fill:#f8f9fa;fill-rule:nonzero;"/></g></svg>